<mxfile host="Electron" modified="2023-09-30T13:34:18.789Z" agent="Mozilla/5.0 (Windows NT 10.0; Win64; x64) AppleWebKit/537.36 (KHTML, like Gecko) draw.io/21.6.8 Chrome/114.0.5735.289 Electron/25.5.0 Safari/537.36" etag="8o9hlm22_T6ZPvmTY-2k" version="21.6.8" type="device">
  <diagram name="Page-1" id="xOw2FHtoDMY4IBhzznP7">
    <mxGraphModel dx="523" dy="382" grid="1" gridSize="10" guides="1" tooltips="1" connect="1" arrows="1" fold="1" page="1" pageScale="1" pageWidth="850" pageHeight="1100" math="0" shadow="0">
      <root>
        <mxCell id="0" />
        <mxCell id="1" parent="0" />
        <mxCell id="-LbPu_HPPMkZFnYY0YGo-1" value="" style="endArrow=open;html=1;rounded=0;endFill=0;fontFamily=Computer Modern;" edge="1" parent="1">
          <mxGeometry width="50" height="50" relative="1" as="geometry">
            <mxPoint x="120" y="360" as="sourcePoint" />
            <mxPoint x="370" y="360" as="targetPoint" />
            <Array as="points">
              <mxPoint x="130" y="360" />
            </Array>
          </mxGeometry>
        </mxCell>
        <mxCell id="-LbPu_HPPMkZFnYY0YGo-2" value="" style="endArrow=open;html=1;rounded=0;endFill=0;fontFamily=Computer Modern;" edge="1" parent="1">
          <mxGeometry width="50" height="50" relative="1" as="geometry">
            <mxPoint x="120" y="360" as="sourcePoint" />
            <mxPoint x="120" y="260" as="targetPoint" />
            <Array as="points" />
          </mxGeometry>
        </mxCell>
        <mxCell id="-LbPu_HPPMkZFnYY0YGo-3" value="0" style="text;html=1;strokeColor=none;fillColor=none;align=center;verticalAlign=middle;whiteSpace=wrap;rounded=0;fontFamily=Computer Modern;" vertex="1" parent="1">
          <mxGeometry x="110" y="360" width="20" height="20" as="geometry" />
        </mxCell>
        <mxCell id="-LbPu_HPPMkZFnYY0YGo-4" value="value [1]" style="text;html=1;strokeColor=none;fillColor=none;align=center;verticalAlign=middle;whiteSpace=wrap;rounded=0;fontFamily=Computer Modern;" vertex="1" parent="1">
          <mxGeometry x="91.5" y="236" width="57" height="30" as="geometry" />
        </mxCell>
        <mxCell id="-LbPu_HPPMkZFnYY0YGo-5" value="" style="endArrow=none;html=1;rounded=0;fontFamily=Computer Modern;" edge="1" parent="1">
          <mxGeometry width="50" height="50" relative="1" as="geometry">
            <mxPoint x="120" y="290" as="sourcePoint" />
            <mxPoint x="130" y="290" as="targetPoint" />
          </mxGeometry>
        </mxCell>
        <mxCell id="-LbPu_HPPMkZFnYY0YGo-8" value="" style="endArrow=none;html=1;rounded=0;dashed=1;fontFamily=Computer Modern;" edge="1" parent="1">
          <mxGeometry width="50" height="50" relative="1" as="geometry">
            <mxPoint x="190" y="290" as="sourcePoint" />
            <mxPoint x="190" y="360" as="targetPoint" />
          </mxGeometry>
        </mxCell>
        <mxCell id="-LbPu_HPPMkZFnYY0YGo-12" value="load" style="text;html=1;strokeColor=none;fillColor=none;align=center;verticalAlign=middle;whiteSpace=wrap;rounded=0;fontFamily=Computer Modern;" vertex="1" parent="1">
          <mxGeometry x="86" y="283" width="38" height="14" as="geometry" />
        </mxCell>
        <mxCell id="-LbPu_HPPMkZFnYY0YGo-13" value="time [CPI]" style="text;html=1;strokeColor=none;fillColor=none;align=center;verticalAlign=middle;whiteSpace=wrap;rounded=0;fontFamily=Computer Modern;" vertex="1" parent="1">
          <mxGeometry x="338" y="363" width="62" height="20" as="geometry" />
        </mxCell>
        <mxCell id="-LbPu_HPPMkZFnYY0YGo-14" value="" style="endArrow=none;html=1;rounded=0;fontFamily=Computer Modern;" edge="1" parent="1">
          <mxGeometry width="50" height="50" relative="1" as="geometry">
            <mxPoint x="130" y="290" as="sourcePoint" />
            <mxPoint x="130" y="300" as="targetPoint" />
          </mxGeometry>
        </mxCell>
        <mxCell id="-LbPu_HPPMkZFnYY0YGo-15" value="" style="endArrow=none;html=1;rounded=0;fontFamily=Computer Modern;" edge="1" parent="1">
          <mxGeometry width="50" height="50" relative="1" as="geometry">
            <mxPoint x="130" y="300" as="sourcePoint" />
            <mxPoint x="140" y="300" as="targetPoint" />
          </mxGeometry>
        </mxCell>
        <mxCell id="-LbPu_HPPMkZFnYY0YGo-16" value="" style="endArrow=none;html=1;rounded=0;fontFamily=Computer Modern;" edge="1" parent="1">
          <mxGeometry width="50" height="50" relative="1" as="geometry">
            <mxPoint x="140" y="300" as="sourcePoint" />
            <mxPoint x="140" y="310" as="targetPoint" />
          </mxGeometry>
        </mxCell>
        <mxCell id="-LbPu_HPPMkZFnYY0YGo-17" value="" style="endArrow=none;html=1;rounded=0;fontFamily=Computer Modern;" edge="1" parent="1">
          <mxGeometry width="50" height="50" relative="1" as="geometry">
            <mxPoint x="150" y="310" as="sourcePoint" />
            <mxPoint x="140" y="310" as="targetPoint" />
          </mxGeometry>
        </mxCell>
        <mxCell id="-LbPu_HPPMkZFnYY0YGo-18" value="" style="endArrow=none;html=1;rounded=0;fontFamily=Computer Modern;" edge="1" parent="1">
          <mxGeometry width="50" height="50" relative="1" as="geometry">
            <mxPoint x="150" y="320" as="sourcePoint" />
            <mxPoint x="150" y="310" as="targetPoint" />
          </mxGeometry>
        </mxCell>
        <mxCell id="-LbPu_HPPMkZFnYY0YGo-19" value="" style="endArrow=none;html=1;rounded=0;fontFamily=Computer Modern;" edge="1" parent="1">
          <mxGeometry width="50" height="50" relative="1" as="geometry">
            <mxPoint x="150" y="320" as="sourcePoint" />
            <mxPoint x="160" y="320" as="targetPoint" />
          </mxGeometry>
        </mxCell>
        <mxCell id="-LbPu_HPPMkZFnYY0YGo-20" value="" style="endArrow=none;html=1;rounded=0;fontFamily=Computer Modern;" edge="1" parent="1">
          <mxGeometry width="50" height="50" relative="1" as="geometry">
            <mxPoint x="160" y="320" as="sourcePoint" />
            <mxPoint x="160" y="330" as="targetPoint" />
          </mxGeometry>
        </mxCell>
        <mxCell id="-LbPu_HPPMkZFnYY0YGo-21" value="" style="endArrow=none;html=1;rounded=0;fontFamily=Computer Modern;" edge="1" parent="1">
          <mxGeometry width="50" height="50" relative="1" as="geometry">
            <mxPoint x="160" y="330" as="sourcePoint" />
            <mxPoint x="170" y="330" as="targetPoint" />
          </mxGeometry>
        </mxCell>
        <mxCell id="-LbPu_HPPMkZFnYY0YGo-22" value="" style="endArrow=none;html=1;rounded=0;fontFamily=Computer Modern;" edge="1" parent="1">
          <mxGeometry width="50" height="50" relative="1" as="geometry">
            <mxPoint x="170" y="330" as="sourcePoint" />
            <mxPoint x="170" y="340" as="targetPoint" />
          </mxGeometry>
        </mxCell>
        <mxCell id="-LbPu_HPPMkZFnYY0YGo-23" value="" style="endArrow=none;html=1;rounded=0;fontFamily=Computer Modern;" edge="1" parent="1">
          <mxGeometry width="50" height="50" relative="1" as="geometry">
            <mxPoint x="180" y="340" as="sourcePoint" />
            <mxPoint x="170" y="340" as="targetPoint" />
          </mxGeometry>
        </mxCell>
        <mxCell id="-LbPu_HPPMkZFnYY0YGo-24" value="" style="endArrow=none;html=1;rounded=0;fontFamily=Computer Modern;" edge="1" parent="1">
          <mxGeometry width="50" height="50" relative="1" as="geometry">
            <mxPoint x="180" y="350" as="sourcePoint" />
            <mxPoint x="180" y="340" as="targetPoint" />
          </mxGeometry>
        </mxCell>
        <mxCell id="-LbPu_HPPMkZFnYY0YGo-25" value="" style="endArrow=none;html=1;rounded=0;fontFamily=Computer Modern;" edge="1" parent="1">
          <mxGeometry width="50" height="50" relative="1" as="geometry">
            <mxPoint x="190" y="350" as="sourcePoint" />
            <mxPoint x="180" y="350" as="targetPoint" />
          </mxGeometry>
        </mxCell>
        <mxCell id="-LbPu_HPPMkZFnYY0YGo-26" value="" style="endArrow=none;html=1;rounded=0;fontFamily=Computer Modern;" edge="1" parent="1">
          <mxGeometry width="50" height="50" relative="1" as="geometry">
            <mxPoint x="190" y="360" as="sourcePoint" />
            <mxPoint x="190" y="350" as="targetPoint" />
          </mxGeometry>
        </mxCell>
        <mxCell id="-LbPu_HPPMkZFnYY0YGo-27" value="" style="endArrow=none;html=1;rounded=0;fontFamily=Computer Modern;" edge="1" parent="1">
          <mxGeometry width="50" height="50" relative="1" as="geometry">
            <mxPoint x="190" y="290" as="sourcePoint" />
            <mxPoint x="200" y="290" as="targetPoint" />
          </mxGeometry>
        </mxCell>
        <mxCell id="-LbPu_HPPMkZFnYY0YGo-28" value="" style="endArrow=none;html=1;rounded=0;dashed=1;fontFamily=Computer Modern;" edge="1" parent="1">
          <mxGeometry width="50" height="50" relative="1" as="geometry">
            <mxPoint x="260" y="290" as="sourcePoint" />
            <mxPoint x="260" y="360" as="targetPoint" />
          </mxGeometry>
        </mxCell>
        <mxCell id="-LbPu_HPPMkZFnYY0YGo-29" value="" style="endArrow=none;html=1;rounded=0;fontFamily=Computer Modern;" edge="1" parent="1">
          <mxGeometry width="50" height="50" relative="1" as="geometry">
            <mxPoint x="200" y="290" as="sourcePoint" />
            <mxPoint x="200" y="300" as="targetPoint" />
          </mxGeometry>
        </mxCell>
        <mxCell id="-LbPu_HPPMkZFnYY0YGo-30" value="" style="endArrow=none;html=1;rounded=0;fontFamily=Computer Modern;" edge="1" parent="1">
          <mxGeometry width="50" height="50" relative="1" as="geometry">
            <mxPoint x="200" y="300" as="sourcePoint" />
            <mxPoint x="210" y="300" as="targetPoint" />
          </mxGeometry>
        </mxCell>
        <mxCell id="-LbPu_HPPMkZFnYY0YGo-31" value="" style="endArrow=none;html=1;rounded=0;fontFamily=Computer Modern;" edge="1" parent="1">
          <mxGeometry width="50" height="50" relative="1" as="geometry">
            <mxPoint x="210" y="300" as="sourcePoint" />
            <mxPoint x="210" y="310" as="targetPoint" />
          </mxGeometry>
        </mxCell>
        <mxCell id="-LbPu_HPPMkZFnYY0YGo-32" value="" style="endArrow=none;html=1;rounded=0;fontFamily=Computer Modern;" edge="1" parent="1">
          <mxGeometry width="50" height="50" relative="1" as="geometry">
            <mxPoint x="220" y="310" as="sourcePoint" />
            <mxPoint x="210" y="310" as="targetPoint" />
          </mxGeometry>
        </mxCell>
        <mxCell id="-LbPu_HPPMkZFnYY0YGo-33" value="" style="endArrow=none;html=1;rounded=0;fontFamily=Computer Modern;" edge="1" parent="1">
          <mxGeometry width="50" height="50" relative="1" as="geometry">
            <mxPoint x="220" y="320" as="sourcePoint" />
            <mxPoint x="220" y="310" as="targetPoint" />
          </mxGeometry>
        </mxCell>
        <mxCell id="-LbPu_HPPMkZFnYY0YGo-34" value="" style="endArrow=none;html=1;rounded=0;fontFamily=Computer Modern;" edge="1" parent="1">
          <mxGeometry width="50" height="50" relative="1" as="geometry">
            <mxPoint x="220" y="320" as="sourcePoint" />
            <mxPoint x="230" y="320" as="targetPoint" />
          </mxGeometry>
        </mxCell>
        <mxCell id="-LbPu_HPPMkZFnYY0YGo-35" value="" style="endArrow=none;html=1;rounded=0;fontFamily=Computer Modern;" edge="1" parent="1">
          <mxGeometry width="50" height="50" relative="1" as="geometry">
            <mxPoint x="230" y="320" as="sourcePoint" />
            <mxPoint x="230" y="330" as="targetPoint" />
          </mxGeometry>
        </mxCell>
        <mxCell id="-LbPu_HPPMkZFnYY0YGo-36" value="" style="endArrow=none;html=1;rounded=0;fontFamily=Computer Modern;" edge="1" parent="1">
          <mxGeometry width="50" height="50" relative="1" as="geometry">
            <mxPoint x="230" y="330" as="sourcePoint" />
            <mxPoint x="240" y="330" as="targetPoint" />
          </mxGeometry>
        </mxCell>
        <mxCell id="-LbPu_HPPMkZFnYY0YGo-37" value="" style="endArrow=none;html=1;rounded=0;fontFamily=Computer Modern;" edge="1" parent="1">
          <mxGeometry width="50" height="50" relative="1" as="geometry">
            <mxPoint x="240" y="330" as="sourcePoint" />
            <mxPoint x="240" y="340" as="targetPoint" />
          </mxGeometry>
        </mxCell>
        <mxCell id="-LbPu_HPPMkZFnYY0YGo-38" value="" style="endArrow=none;html=1;rounded=0;fontFamily=Computer Modern;" edge="1" parent="1">
          <mxGeometry width="50" height="50" relative="1" as="geometry">
            <mxPoint x="250" y="340" as="sourcePoint" />
            <mxPoint x="240" y="340" as="targetPoint" />
          </mxGeometry>
        </mxCell>
        <mxCell id="-LbPu_HPPMkZFnYY0YGo-39" value="" style="endArrow=none;html=1;rounded=0;fontFamily=Computer Modern;" edge="1" parent="1">
          <mxGeometry width="50" height="50" relative="1" as="geometry">
            <mxPoint x="250" y="350" as="sourcePoint" />
            <mxPoint x="250" y="340" as="targetPoint" />
          </mxGeometry>
        </mxCell>
        <mxCell id="-LbPu_HPPMkZFnYY0YGo-40" value="" style="endArrow=none;html=1;rounded=0;fontFamily=Computer Modern;" edge="1" parent="1">
          <mxGeometry width="50" height="50" relative="1" as="geometry">
            <mxPoint x="260" y="350" as="sourcePoint" />
            <mxPoint x="250" y="350" as="targetPoint" />
          </mxGeometry>
        </mxCell>
        <mxCell id="-LbPu_HPPMkZFnYY0YGo-41" value="" style="endArrow=none;html=1;rounded=0;fontFamily=Computer Modern;" edge="1" parent="1">
          <mxGeometry width="50" height="50" relative="1" as="geometry">
            <mxPoint x="260" y="360" as="sourcePoint" />
            <mxPoint x="260" y="350" as="targetPoint" />
          </mxGeometry>
        </mxCell>
        <mxCell id="-LbPu_HPPMkZFnYY0YGo-44" value="" style="endArrow=none;html=1;rounded=0;fontFamily=Computer Modern;" edge="1" parent="1">
          <mxGeometry width="50" height="50" relative="1" as="geometry">
            <mxPoint x="260" y="290" as="sourcePoint" />
            <mxPoint x="270" y="290" as="targetPoint" />
          </mxGeometry>
        </mxCell>
        <mxCell id="-LbPu_HPPMkZFnYY0YGo-46" value="" style="endArrow=none;html=1;rounded=0;fontFamily=Computer Modern;" edge="1" parent="1">
          <mxGeometry width="50" height="50" relative="1" as="geometry">
            <mxPoint x="270" y="290" as="sourcePoint" />
            <mxPoint x="270" y="300" as="targetPoint" />
          </mxGeometry>
        </mxCell>
        <mxCell id="-LbPu_HPPMkZFnYY0YGo-47" value="" style="endArrow=none;html=1;rounded=0;fontFamily=Computer Modern;" edge="1" parent="1">
          <mxGeometry width="50" height="50" relative="1" as="geometry">
            <mxPoint x="270" y="300" as="sourcePoint" />
            <mxPoint x="280" y="300" as="targetPoint" />
          </mxGeometry>
        </mxCell>
        <mxCell id="-LbPu_HPPMkZFnYY0YGo-48" value="" style="endArrow=none;html=1;rounded=0;fontFamily=Computer Modern;" edge="1" parent="1">
          <mxGeometry width="50" height="50" relative="1" as="geometry">
            <mxPoint x="280" y="300" as="sourcePoint" />
            <mxPoint x="280" y="310" as="targetPoint" />
          </mxGeometry>
        </mxCell>
        <mxCell id="-LbPu_HPPMkZFnYY0YGo-49" value="" style="endArrow=none;html=1;rounded=0;fontFamily=Computer Modern;" edge="1" parent="1">
          <mxGeometry width="50" height="50" relative="1" as="geometry">
            <mxPoint x="290" y="310" as="sourcePoint" />
            <mxPoint x="280" y="310" as="targetPoint" />
          </mxGeometry>
        </mxCell>
        <mxCell id="-LbPu_HPPMkZFnYY0YGo-50" value="" style="endArrow=none;html=1;rounded=0;fontFamily=Computer Modern;" edge="1" parent="1">
          <mxGeometry width="50" height="50" relative="1" as="geometry">
            <mxPoint x="290" y="320" as="sourcePoint" />
            <mxPoint x="290" y="310" as="targetPoint" />
          </mxGeometry>
        </mxCell>
        <mxCell id="-LbPu_HPPMkZFnYY0YGo-51" value="" style="endArrow=none;html=1;rounded=0;fontFamily=Computer Modern;" edge="1" parent="1">
          <mxGeometry width="50" height="50" relative="1" as="geometry">
            <mxPoint x="290" y="320" as="sourcePoint" />
            <mxPoint x="300" y="320" as="targetPoint" />
          </mxGeometry>
        </mxCell>
        <mxCell id="-LbPu_HPPMkZFnYY0YGo-52" value="" style="endArrow=none;html=1;rounded=0;fontFamily=Computer Modern;" edge="1" parent="1">
          <mxGeometry width="50" height="50" relative="1" as="geometry">
            <mxPoint x="300" y="320" as="sourcePoint" />
            <mxPoint x="300" y="330" as="targetPoint" />
          </mxGeometry>
        </mxCell>
        <mxCell id="-LbPu_HPPMkZFnYY0YGo-53" value="" style="endArrow=none;html=1;rounded=0;fontFamily=Computer Modern;" edge="1" parent="1">
          <mxGeometry width="50" height="50" relative="1" as="geometry">
            <mxPoint x="300" y="330" as="sourcePoint" />
            <mxPoint x="310" y="330" as="targetPoint" />
          </mxGeometry>
        </mxCell>
        <mxCell id="-LbPu_HPPMkZFnYY0YGo-54" value="" style="endArrow=none;html=1;rounded=0;fontFamily=Computer Modern;" edge="1" parent="1">
          <mxGeometry width="50" height="50" relative="1" as="geometry">
            <mxPoint x="310" y="330" as="sourcePoint" />
            <mxPoint x="310" y="340" as="targetPoint" />
          </mxGeometry>
        </mxCell>
        <mxCell id="-LbPu_HPPMkZFnYY0YGo-55" value="" style="endArrow=none;html=1;rounded=0;fontFamily=Computer Modern;" edge="1" parent="1">
          <mxGeometry width="50" height="50" relative="1" as="geometry">
            <mxPoint x="320" y="340" as="sourcePoint" />
            <mxPoint x="310" y="340" as="targetPoint" />
          </mxGeometry>
        </mxCell>
        <mxCell id="-LbPu_HPPMkZFnYY0YGo-56" value="" style="endArrow=none;html=1;rounded=0;fontFamily=Computer Modern;" edge="1" parent="1">
          <mxGeometry width="50" height="50" relative="1" as="geometry">
            <mxPoint x="320" y="350" as="sourcePoint" />
            <mxPoint x="320" y="340" as="targetPoint" />
          </mxGeometry>
        </mxCell>
        <mxCell id="-LbPu_HPPMkZFnYY0YGo-57" value="" style="endArrow=none;html=1;rounded=0;fontFamily=Computer Modern;" edge="1" parent="1">
          <mxGeometry width="50" height="50" relative="1" as="geometry">
            <mxPoint x="330" y="350" as="sourcePoint" />
            <mxPoint x="320" y="350" as="targetPoint" />
          </mxGeometry>
        </mxCell>
        <mxCell id="-LbPu_HPPMkZFnYY0YGo-58" value="" style="endArrow=none;html=1;rounded=0;fontFamily=Computer Modern;" edge="1" parent="1">
          <mxGeometry width="50" height="50" relative="1" as="geometry">
            <mxPoint x="330" y="360" as="sourcePoint" />
            <mxPoint x="330" y="350" as="targetPoint" />
          </mxGeometry>
        </mxCell>
        <mxCell id="-LbPu_HPPMkZFnYY0YGo-59" value="" style="endArrow=none;html=1;rounded=0;dashed=1;fontFamily=Computer Modern;" edge="1" parent="1">
          <mxGeometry width="50" height="50" relative="1" as="geometry">
            <mxPoint x="132" y="290" as="sourcePoint" />
            <mxPoint x="190" y="290" as="targetPoint" />
          </mxGeometry>
        </mxCell>
        <mxCell id="-LbPu_HPPMkZFnYY0YGo-60" value="Interrupt is triggered&lt;br&gt;(value == 0)" style="text;html=1;strokeColor=none;fillColor=none;align=center;verticalAlign=middle;whiteSpace=wrap;rounded=0;fontFamily=Computer Modern;" vertex="1" parent="1">
          <mxGeometry x="205" y="396" width="110" height="30" as="geometry" />
        </mxCell>
        <mxCell id="-LbPu_HPPMkZFnYY0YGo-65" value="" style="endArrow=none;html=1;rounded=0;dashed=1;fontFamily=Computer Modern;" edge="1" parent="1">
          <mxGeometry width="50" height="50" relative="1" as="geometry">
            <mxPoint x="201" y="290" as="sourcePoint" />
            <mxPoint x="261" y="290" as="targetPoint" />
          </mxGeometry>
        </mxCell>
        <mxCell id="-LbPu_HPPMkZFnYY0YGo-66" value="" style="endArrow=none;html=1;rounded=0;dashed=1;fontFamily=Computer Modern;" edge="1" parent="1">
          <mxGeometry width="50" height="50" relative="1" as="geometry">
            <mxPoint x="270" y="290.8" as="sourcePoint" />
            <mxPoint x="360" y="290" as="targetPoint" />
          </mxGeometry>
        </mxCell>
        <mxCell id="-LbPu_HPPMkZFnYY0YGo-67" value="" style="endArrow=open;html=1;rounded=0;exitX=0.25;exitY=0;exitDx=0;exitDy=0;fontFamily=Computer Modern;endFill=0;" edge="1" parent="1">
          <mxGeometry width="50" height="50" relative="1" as="geometry">
            <mxPoint x="233.5" y="396" as="sourcePoint" />
            <mxPoint x="191" y="363" as="targetPoint" />
          </mxGeometry>
        </mxCell>
        <mxCell id="-LbPu_HPPMkZFnYY0YGo-68" value="" style="endArrow=open;html=1;rounded=0;exitX=0.5;exitY=0;exitDx=0;exitDy=0;fontFamily=Computer Modern;endFill=0;" edge="1" parent="1">
          <mxGeometry width="50" height="50" relative="1" as="geometry">
            <mxPoint x="260" y="396" as="sourcePoint" />
            <mxPoint x="260" y="363" as="targetPoint" />
          </mxGeometry>
        </mxCell>
        <mxCell id="-LbPu_HPPMkZFnYY0YGo-69" value="" style="endArrow=open;html=1;rounded=0;exitX=0.75;exitY=0;exitDx=0;exitDy=0;fontFamily=Computer Modern;endFill=0;" edge="1" parent="1">
          <mxGeometry width="50" height="50" relative="1" as="geometry">
            <mxPoint x="287.5" y="396" as="sourcePoint" />
            <mxPoint x="330" y="363" as="targetPoint" />
          </mxGeometry>
        </mxCell>
        <mxCell id="-LbPu_HPPMkZFnYY0YGo-70" value="" style="endArrow=none;html=1;rounded=0;" edge="1" parent="1">
          <mxGeometry width="50" height="50" relative="1" as="geometry">
            <mxPoint x="140" y="390" as="sourcePoint" />
            <mxPoint x="140" y="310" as="targetPoint" />
          </mxGeometry>
        </mxCell>
        <mxCell id="-LbPu_HPPMkZFnYY0YGo-71" value="" style="endArrow=none;html=1;rounded=0;" edge="1" parent="1">
          <mxGeometry width="50" height="50" relative="1" as="geometry">
            <mxPoint x="150" y="390" as="sourcePoint" />
            <mxPoint x="150" y="310" as="targetPoint" />
          </mxGeometry>
        </mxCell>
        <mxCell id="-LbPu_HPPMkZFnYY0YGo-73" value="Prescaler value&lt;br&gt;(1, 16, 256)" style="text;html=1;strokeColor=none;fillColor=none;align=center;verticalAlign=middle;whiteSpace=wrap;rounded=0;fontFamily=Computer Modern;" vertex="1" parent="1">
          <mxGeometry x="91.5" y="396" width="110" height="30" as="geometry" />
        </mxCell>
        <mxCell id="-LbPu_HPPMkZFnYY0YGo-74" value="" style="endArrow=none;html=1;rounded=0;" edge="1" parent="1">
          <mxGeometry width="50" height="50" relative="1" as="geometry">
            <mxPoint x="140" y="385" as="sourcePoint" />
            <mxPoint x="150" y="385" as="targetPoint" />
          </mxGeometry>
        </mxCell>
        <mxCell id="-LbPu_HPPMkZFnYY0YGo-75" value="" style="endArrow=open;html=1;rounded=0;fontFamily=Computer Modern;endFill=0;" edge="1" parent="1">
          <mxGeometry width="50" height="50" relative="1" as="geometry">
            <mxPoint x="170" y="385" as="sourcePoint" />
            <mxPoint x="150" y="385" as="targetPoint" />
          </mxGeometry>
        </mxCell>
        <mxCell id="-LbPu_HPPMkZFnYY0YGo-76" value="" style="endArrow=open;html=1;rounded=0;fontFamily=Computer Modern;endFill=0;" edge="1" parent="1">
          <mxGeometry width="50" height="50" relative="1" as="geometry">
            <mxPoint x="120" y="385" as="sourcePoint" />
            <mxPoint x="140" y="385" as="targetPoint" />
          </mxGeometry>
        </mxCell>
      </root>
    </mxGraphModel>
  </diagram>
</mxfile>
